<?xml version="1.0" encoding="utf-8"?>
<!-- Generator: Adobe Illustrator 16.0.0, SVG Export Plug-In . SVG Version: 6.00 Build 0)  -->
<!DOCTYPE svg PUBLIC "-//W3C//DTD SVG 1.1//EN" "http://www.w3.org/Graphics/SVG/1.1/DTD/svg11.dtd" [
	<!ENTITY ns_extend "http://ns.adobe.com/Extensibility/1.0/">
	<!ENTITY ns_ai "http://ns.adobe.com/AdobeIllustrator/10.0/">
	<!ENTITY ns_graphs "http://ns.adobe.com/Graphs/1.0/">
	<!ENTITY ns_vars "http://ns.adobe.com/Variables/1.0/">
	<!ENTITY ns_imrep "http://ns.adobe.com/ImageReplacement/1.0/">
	<!ENTITY ns_sfw "http://ns.adobe.com/SaveForWeb/1.0/">
	<!ENTITY ns_custom "http://ns.adobe.com/GenericCustomNamespace/1.0/">
	<!ENTITY ns_adobe_xpath "http://ns.adobe.com/XPath/1.0/">
]>
<svg version="1.1" id="Layer_1" xmlns:x="&ns_extend;" xmlns:i="&ns_ai;" xmlns:graph="&ns_graphs;"
	 xmlns="http://www.w3.org/2000/svg" xmlns:xlink="http://www.w3.org/1999/xlink" x="0px" y="0px" width="735.5px" height="498px"
	 viewBox="-307.5 -84.672 735.5 498" enable-background="new -307.5 -84.672 735.5 498" xml:space="preserve">
<metadata>
	<sfw  xmlns="&ns_sfw;">
		<slices></slices>
		<sliceSourceBounds  y="251.35" x="15.926" width="543.906" height="342.902" bottomLeftOrigin="true"></sliceSourceBounds>
	</sfw>
</metadata>
<g>
	<rect x="-39.656" y="-18.924" width="109.101" height="219.33"/>
	<rect x="76.491" y="-18.924" width="102.128" height="116.847"/>
	<rect x="127.555" y="104.471" width="51.066" height="95.935"/>
	<rect x="76.491" y="156.362" width="44.062" height="44.044"/>
</g>
<g>
	<path d="M-193.486,322.181c-2.575-1.195-5.131-3.062-7.667-5.595c-0.279-0.28-0.421-0.632-0.421-1.053
		c0-0.372,0.163-0.74,0.494-1.09c0.328-0.351,0.681-0.529,1.054-0.529c0.426,0,0.824,0.213,1.198,0.639
		c1.828,2.149,3.999,3.793,6.507,4.918c2.509,1.127,5.149,1.69,7.915,1.69c3.61,0,6.587-0.862,8.934-2.606
		c2.345-1.732,3.523-4.029,3.523-6.89c-0.05-2.25-0.658-4.1-1.833-5.561c-1.169-1.452-2.615-2.611-4.324-3.48
		c-1.715-0.869-4.048-1.839-7.002-2.924c-3.237-1.217-5.759-2.295-7.56-3.237c-1.808-0.935-3.354-2.274-4.646-4.01
		c-1.293-1.733-1.936-4.005-1.936-6.825c0-2.296,0.635-4.383,1.903-6.258c1.266-1.878,3.069-3.354,5.413-4.433
		c2.347-1.083,5.069-1.621,8.163-1.621c2.77,0,5.394,0.505,7.88,1.513c2.486,1.012,4.454,2.427,5.911,4.257
		c0.467,0.658,0.705,1.154,0.705,1.479c0,0.376-0.178,0.717-0.532,1.02c-0.348,0.308-0.734,0.46-1.158,0.46
		c-0.374,0-0.679-0.14-0.916-0.422c-1.312-1.687-3.005-3.025-5.065-4.011c-2.063-0.984-4.339-1.476-6.827-1.476
		c-3.563,0-6.53,0.844-8.896,2.532c-2.369,1.689-3.556,3.989-3.556,6.896c0,2.017,0.574,3.731,1.726,5.139
		c1.149,1.406,2.586,2.542,4.327,3.414c1.735,0.862,3.893,1.766,6.47,2.703c3.283,1.174,5.882,2.254,7.81,3.241
		c1.922,0.982,3.565,2.42,4.925,4.289c1.361,1.876,2.041,4.362,2.041,7.46c0,2.159-0.633,4.172-1.899,6.051
		c-1.267,1.88-3.087,3.362-5.455,4.47c-2.368,1.097-5.077,1.647-8.126,1.647C-187.88,323.975-190.902,323.377-193.486,322.181z"/>
	<path d="M-145.503,288.305c0.281,0.281,0.423,0.587,0.423,0.916c0,0.376-0.134,0.693-0.389,0.947
		c-0.258,0.258-0.575,0.39-0.95,0.39h-7.737v25.047c0,2.06,0.363,3.436,1.089,4.116c0.724,0.68,1.656,1.02,2.78,1.02
		c0.187,0,0.453-0.045,0.807-0.143c0.35-0.093,0.643-0.137,0.882-0.137c0.324,0,0.607,0.122,0.843,0.384
		c0.231,0.257,0.347,0.551,0.347,0.878c0,0.422-0.279,0.785-0.845,1.09c-0.562,0.309-1.22,0.459-1.969,0.459
		c-1.171,0-2.157-0.085-2.953-0.25c-0.798-0.162-1.628-0.799-2.497-1.896c-0.869-1.106-1.301-2.897-1.301-5.388v-25.181h-5.774
		c-0.328,0-0.629-0.139-0.914-0.422c-0.28-0.28-0.421-0.586-0.421-0.915c0-0.377,0.129-0.691,0.388-0.95
		c0.261-0.256,0.57-0.389,0.948-0.389h5.775v-8.936c0-0.372,0.137-0.703,0.418-0.985c0.281-0.279,0.607-0.422,0.986-0.422
		c0.421,0,0.764,0.143,1.021,0.422c0.255,0.282,0.386,0.613,0.386,0.985v8.936h7.737
		C-146.091,287.882-145.785,288.022-145.503,288.305z"/>
	<path d="M-107.472,288.588c0.254,0.28,0.385,0.61,0.385,0.985v32.295c0,0.373-0.142,0.699-0.421,0.981
		c-0.279,0.279-0.613,0.422-0.987,0.422c-0.418,0-0.763-0.143-1.018-0.422c-0.261-0.282-0.389-0.608-0.389-0.981v-6.334
		c-1.171,2.396-2.979,4.397-5.418,6.013c-2.438,1.624-5.135,2.425-8.09,2.425c-3.093,0-5.885-0.803-8.372-2.425
		c-2.486-1.615-4.432-3.843-5.841-6.679c-1.407-2.84-2.109-6.016-2.109-9.534c0-3.47,0.709-6.6,2.142-9.391
		c1.435-2.795,3.39-4.975,5.872-6.548c2.487-1.569,5.256-2.354,8.305-2.354c3.05,0,5.792,0.796,8.232,2.396
		c2.438,1.593,4.199,3.726,5.276,6.396v-6.264c0-0.373,0.126-0.705,0.389-0.984c0.257-0.281,0.6-0.423,1.017-0.423
		C-108.073,288.164-107.733,288.305-107.472,288.588z M-116.271,319.232c2.086-1.387,3.718-3.301,4.887-5.741
		c1.171-2.431,1.759-5.153,1.759-8.157c0-2.86-0.587-5.492-1.759-7.883c-1.169-2.392-2.802-4.276-4.887-5.66
		c-2.089-1.386-4.422-2.076-7.001-2.076c-2.579,0-4.914,0.669-7.002,2c-2.085,1.342-3.711,3.195-4.885,5.559
		c-1.171,2.367-1.757,5.056-1.757,8.061c0,3.001,0.585,5.721,1.757,8.157c1.174,2.44,2.789,4.354,4.852,5.741
		c2.065,1.381,4.412,2.075,7.037,2.075C-120.69,321.307-118.361,320.613-116.271,319.232z"/>
	<path d="M-70.015,290.73c2.111,2.466,3.166,5.665,3.166,9.606v21.532c0,0.373-0.14,0.699-0.421,0.979
		c-0.281,0.282-0.608,0.425-0.985,0.425c-0.422,0-0.763-0.143-1.017-0.425c-0.256-0.279-0.389-0.605-0.389-0.979V300.62
		c0-3.191-0.833-5.808-2.499-7.845c-1.666-2.045-4.188-3.061-7.566-3.061c-2.064,0-4.092,0.488-6.083,1.474
		c-1.992,0.986-3.62,2.322-4.886,4.011c-1.265,1.69-1.904,3.494-1.904,5.421v21.249c0,0.373-0.139,0.699-0.421,0.979
		c-0.278,0.279-0.611,0.423-0.984,0.423c-0.419,0-0.762-0.144-1.02-0.423c-0.259-0.279-0.386-0.605-0.386-0.979v-32.295
		c0-0.373,0.142-0.705,0.421-0.984c0.281-0.282,0.608-0.423,0.984-0.423c0.421,0,0.762,0.141,1.021,0.423
		c0.255,0.279,0.385,0.611,0.385,0.984v4.712c1.365-2.109,3.274-3.845,5.736-5.204c2.46-1.364,4.932-2.043,7.421-2.043
		C-75.266,287.039-72.123,288.271-70.015,290.73z"/>
	<path d="M-55.557,281.622c-0.445-0.418-0.668-0.96-0.668-1.619v-0.56c0-0.658,0.234-1.197,0.702-1.621
		c0.47-0.419,1.083-0.631,1.831-0.631c0.657,0,1.208,0.209,1.655,0.631c0.444,0.422,0.668,0.963,0.668,1.621v0.56
		c0,0.659-0.223,1.198-0.668,1.619c-0.448,0.423-1.021,0.637-1.724,0.637C-54.514,282.258-55.109,282.044-55.557,281.622z
		 M-52.779,322.847c-0.28,0.282-0.612,0.425-0.983,0.425c-0.424,0-0.762-0.143-1.02-0.425c-0.261-0.279-0.389-0.605-0.389-0.979
		v-33.42c0-0.375,0.142-0.709,0.422-0.988c0.279-0.279,0.607-0.419,0.985-0.419c0.422,0,0.762,0.14,1.017,0.419
		c0.259,0.279,0.39,0.613,0.39,0.988v33.42C-52.355,322.245-52.497,322.568-52.779,322.847z"/>
	<path d="M-43.142,316.306c0-0.329,0.187-0.631,0.561-0.912c0.237-0.235,0.518-0.352,0.847-0.352c0.466,0,0.842,0.185,1.124,0.563
		c2.723,3.893,6.523,5.835,11.4,5.835c2.487,0,4.664-0.622,6.542-1.864c1.874-1.245,2.813-2.92,2.813-5.025
		c0-2.159-0.819-3.775-2.463-4.857c-1.643-1.079-3.896-1.972-6.752-2.676c-3.8-0.934-6.788-2.194-8.972-3.764
		c-2.178-1.568-3.269-3.788-3.269-6.651c0-2.768,1.1-5.052,3.307-6.86c2.206-1.805,5.043-2.708,8.513-2.708
		c1.923,0,3.836,0.373,5.736,1.128c1.899,0.749,3.621,1.947,5.169,3.587c0.33,0.28,0.493,0.612,0.493,0.984
		c0,0.421-0.165,0.799-0.493,1.125c-0.376,0.19-0.681,0.283-0.912,0.283c-0.333,0-0.613-0.14-0.847-0.422
		c-2.439-2.673-5.583-4.007-9.429-4.007c-2.486,0-4.587,0.608-6.297,1.827c-1.712,1.221-2.566,2.908-2.566,5.063
		c0.136,2.02,1.064,3.578,2.78,4.685c1.709,1.096,4.226,2.07,7.563,2.919c2.39,0.605,4.373,1.274,5.946,2.003
		c1.569,0.73,2.824,1.752,3.761,3.06c0.94,1.312,1.406,3.023,1.406,5.138c0,2.955-1.137,5.284-3.412,6.999
		c-2.274,1.712-5.241,2.566-8.9,2.566c-5.346,0-9.733-2.106-13.153-6.327C-42.979,317.129-43.142,316.686-43.142,316.306z"/>
	<path d="M-5.224,322.847c-0.279,0.282-0.607,0.425-0.985,0.425c-0.42,0-0.761-0.143-1.016-0.425
		c-0.259-0.279-0.391-0.605-0.391-0.979v-49.252c0-0.373,0.141-0.704,0.424-0.986c0.281-0.277,0.611-0.419,0.982-0.419
		c0.424,0,0.764,0.142,1.021,0.419c0.26,0.282,0.389,0.613,0.389,0.986v49.252C-4.799,322.245-4.938,322.568-5.224,322.847z"/>
	<path d="M37.029,288.588c0.256,0.28,0.389,0.61,0.389,0.985v32.295c0,0.373-0.142,0.699-0.424,0.981
		c-0.28,0.279-0.608,0.422-0.984,0.422c-0.422,0-0.762-0.143-1.021-0.422c-0.258-0.282-0.385-0.608-0.385-0.981v-6.334
		c-1.176,2.396-2.98,4.397-5.419,6.013c-2.439,1.624-5.135,2.425-8.089,2.425c-3.097,0-5.885-0.803-8.373-2.425
		c-2.49-1.615-4.437-3.843-5.843-6.679c-1.406-2.84-2.11-6.016-2.11-9.534c0-3.47,0.717-6.6,2.146-9.391
		c1.43-2.795,3.391-4.975,5.877-6.548c2.483-1.569,5.249-2.354,8.301-2.354c3.047,0,5.792,0.796,8.231,2.396
		c2.436,1.593,4.197,3.726,5.277,6.396v-6.264c0-0.373,0.125-0.705,0.385-0.984c0.26-0.281,0.598-0.423,1.021-0.423
		C36.432,288.164,36.77,288.305,37.029,288.588z M28.236,319.232c2.087-1.387,3.715-3.301,4.886-5.741
		c1.169-2.431,1.76-5.153,1.76-8.157c0-2.86-0.591-5.492-1.76-7.883c-1.171-2.392-2.799-4.276-4.886-5.66
		c-2.088-1.386-4.426-2.076-7.001-2.076c-2.58,0-4.914,0.669-7.002,2c-2.088,1.342-3.716,3.195-4.885,5.559
		c-1.175,2.367-1.759,5.056-1.759,8.061c0,3.001,0.584,5.721,1.759,8.157c1.169,2.44,2.791,4.354,4.853,5.741
		c2.061,1.381,4.408,2.075,7.035,2.075C23.81,321.307,26.148,320.613,28.236,319.232z"/>
	<path d="M46.632,316.306c0-0.329,0.187-0.631,0.561-0.912c0.236-0.235,0.518-0.352,0.846-0.352c0.466,0,0.845,0.185,1.125,0.563
		c2.723,3.893,6.52,5.835,11.395,5.835c2.486,0,4.667-0.622,6.544-1.864c1.875-1.245,2.813-2.92,2.813-5.025
		c0-2.159-0.816-3.775-2.462-4.857c-1.643-1.079-3.896-1.972-6.752-2.676c-3.797-0.934-6.789-2.194-8.969-3.764
		c-2.179-1.568-3.274-3.788-3.274-6.651c0-2.768,1.103-5.052,3.309-6.86c2.206-1.805,5.041-2.708,8.511-2.708
		c1.925,0,3.839,0.373,5.736,1.128c1.9,0.749,3.624,1.947,5.168,3.587c0.329,0.28,0.495,0.612,0.495,0.984
		c0,0.421-0.167,0.799-0.495,1.125c-0.374,0.19-0.68,0.283-0.912,0.283c-0.329,0-0.611-0.14-0.849-0.422
		c-2.436-2.673-5.581-4.007-9.424-4.007c-2.488,0-4.586,0.608-6.299,1.827c-1.71,1.221-2.567,2.908-2.567,5.063
		c0.139,2.02,1.067,3.578,2.78,4.685c1.712,1.096,4.23,2.07,7.564,2.919c2.392,0.605,4.373,1.274,5.944,2.003
		c1.572,0.73,2.824,1.752,3.762,3.06c0.939,1.312,1.408,3.023,1.408,5.138c0,2.955-1.136,5.284-3.41,6.999
		c-2.275,1.712-5.243,2.566-8.904,2.566c-5.343,0-9.731-2.106-13.151-6.327C46.796,317.129,46.632,316.686,46.632,316.306z"/>
	<path d="M139.073,279.227c0,0.376-0.092,0.682-0.278,0.917c-0.28,0.376-0.634,0.563-1.059,0.563c-0.185,0-0.467-0.09-0.843-0.282
		c-4.362-2.952-8.98-4.433-13.86-4.433c-3.936,0-7.563,0.974-10.864,2.922c-3.311,1.947-5.922,4.644-7.847,8.093
		c-1.923,3.441-2.885,7.328-2.885,11.644s0.96,8.195,2.885,11.645c1.924,3.448,4.537,6.147,7.847,8.088
		c3.303,1.951,6.928,2.927,10.864,2.927c4.927,0,9.523-1.455,13.792-4.365c0.23-0.188,0.512-0.282,0.845-0.282
		c0.467,0,0.845,0.188,1.125,0.562c0.186,0.234,0.278,0.517,0.278,0.846c0,0.47-0.186,0.843-0.559,1.125
		c-1.83,1.313-4.187,2.438-7.07,3.376c-2.886,0.942-5.69,1.407-8.409,1.407c-4.454,0-8.557-1.1-12.312-3.306
		c-3.751-2.206-6.732-5.243-8.934-9.108c-2.206-3.872-3.309-8.172-3.309-12.913c0-4.738,1.101-9.043,3.309-12.91
		c2.201-3.868,5.182-6.905,8.934-9.111c3.755-2.202,7.858-3.31,12.312-3.31c2.812,0,5.547,0.423,8.195,1.266
		c2.649,0.848,5.055,2.02,7.211,3.521C138.862,278.432,139.073,278.804,139.073,279.227z"/>
	<path d="M171.999,291.578c2.157,2.559,3.236,5.805,3.236,9.745v20.546c0,0.373-0.139,0.699-0.422,0.981
		c-0.279,0.279-0.608,0.422-0.983,0.422c-0.422,0-0.762-0.143-1.017-0.422c-0.259-0.282-0.391-0.608-0.391-0.981v-20.546
		c0-3.238-0.795-5.864-2.39-7.88c-1.594-2.016-4.037-3.024-7.318-3.024c-2.018,0-3.995,0.489-5.94,1.474
		c-1.949,0.986-3.533,2.323-4.751,4.013c-1.22,1.687-1.83,3.49-1.83,5.417v20.547c0,0.373-0.139,0.699-0.419,0.979
		c-0.281,0.282-0.614,0.425-0.984,0.425c-0.423,0-0.764-0.143-1.02-0.425c-0.262-0.279-0.389-0.605-0.389-0.979v-49.252
		c0-0.373,0.142-0.704,0.421-0.986c0.279-0.277,0.608-0.418,0.986-0.418c0.421,0,0.763,0.141,1.018,0.418
		c0.257,0.282,0.387,0.613,0.387,0.986v22.23c1.311-2.06,3.13-3.762,5.454-5.1c2.322-1.336,4.679-2.008,7.069-2.008
		C166.744,287.739,169.843,289.02,171.999,291.578z"/>
	<path d="M216.712,288.588c0.256,0.28,0.386,0.61,0.386,0.985v32.295c0,0.373-0.142,0.699-0.422,0.981
		c-0.279,0.279-0.609,0.422-0.985,0.422c-0.422,0-0.762-0.143-1.021-0.422c-0.258-0.282-0.385-0.608-0.385-0.981v-6.334
		c-1.174,2.396-2.98,4.397-5.417,6.013c-2.441,1.624-5.138,2.425-8.092,2.425c-3.094,0-5.885-0.803-8.373-2.425
		c-2.489-1.615-4.435-3.843-5.841-6.679c-1.408-2.84-2.112-6.016-2.112-9.534c0-3.47,0.716-6.6,2.145-9.391
		c1.43-2.795,3.393-4.975,5.877-6.548c2.483-1.569,5.249-2.354,8.301-2.354c3.047,0,5.791,0.796,8.231,2.396
		c2.435,1.593,4.198,3.726,5.276,6.396v-6.264c0-0.373,0.126-0.705,0.386-0.984c0.26-0.281,0.597-0.423,1.021-0.423
		C216.111,288.164,216.451,288.305,216.712,288.588z M207.915,319.232c2.088-1.387,3.716-3.301,4.89-5.741
		c1.168-2.431,1.755-5.153,1.755-8.157c0-2.86-0.587-5.492-1.755-7.883c-1.174-2.392-2.802-4.276-4.89-5.66
		c-2.086-1.386-4.423-2.076-7-2.076c-2.579,0-4.917,0.669-7.001,2c-2.088,1.342-3.715,3.195-4.886,5.559
		c-1.175,2.367-1.759,5.056-1.759,8.061c0,3.001,0.584,5.721,1.759,8.157c1.171,2.44,2.791,4.354,4.855,5.741
		c2.061,1.381,4.405,2.075,7.034,2.075C203.493,321.307,205.827,320.613,207.915,319.232z"/>
	<path d="M228.388,281.622c-0.445-0.418-0.671-0.96-0.671-1.619v-0.56c0-0.658,0.239-1.197,0.706-1.621
		c0.469-0.419,1.081-0.631,1.83-0.631c0.654,0,1.204,0.209,1.655,0.631c0.442,0.422,0.665,0.963,0.665,1.621v0.56
		c0,0.659-0.223,1.198-0.665,1.619c-0.45,0.423-1.021,0.637-1.727,0.637C229.429,282.258,228.836,282.044,228.388,281.622z
		 M231.168,322.847c-0.281,0.282-0.614,0.425-0.986,0.425c-0.421,0-0.762-0.143-1.021-0.425c-0.259-0.279-0.385-0.605-0.385-0.979
		v-33.42c0-0.375,0.141-0.709,0.421-0.988c0.279-0.279,0.606-0.419,0.984-0.419c0.419,0,0.764,0.14,1.02,0.419
		c0.255,0.279,0.389,0.613,0.389,0.988v33.42C231.589,322.245,231.447,322.568,231.168,322.847z"/>
	<path d="M246.011,322.847c-0.281,0.282-0.61,0.425-0.984,0.425c-0.421,0-0.764-0.143-1.016-0.425
		c-0.262-0.279-0.39-0.605-0.39-0.979v-49.252c0-0.373,0.139-0.704,0.418-0.986c0.283-0.277,0.612-0.419,0.987-0.419
		c0.42,0,0.763,0.142,1.021,0.419c0.257,0.282,0.391,0.613,0.391,0.986v49.252C246.436,322.245,246.294,322.568,246.011,322.847z"/>
	<path d="M261.206,322.847c-0.279,0.282-0.607,0.425-0.985,0.425c-0.419,0-0.762-0.143-1.018-0.425
		c-0.256-0.279-0.39-0.605-0.39-0.979v-49.252c0-0.373,0.142-0.704,0.423-0.986c0.281-0.277,0.612-0.419,0.984-0.419
		c0.424,0,0.762,0.142,1.023,0.419c0.258,0.282,0.388,0.613,0.388,0.986v49.252C261.634,322.245,261.492,322.568,261.206,322.847z"
		/>
	<path d="M302.934,314.939c-1.506,2.789-3.582,4.992-6.23,6.605c-2.649,1.625-5.594,2.428-8.827,2.428
		c-3.241,0-6.18-0.804-8.833-2.428c-2.646-1.613-4.737-3.834-6.26-6.649c-1.526-2.812-2.286-5.927-2.286-9.356
		c0-3.468,0.762-6.612,2.286-9.432c1.525-2.813,3.6-5.028,6.226-6.646c2.627-1.615,5.583-2.425,8.867-2.425
		c3.234,0,6.178,0.81,8.827,2.425c2.648,1.618,4.727,3.834,6.23,6.646c1.495,2.815,2.248,5.964,2.248,9.432
		C305.182,309.017,304.429,312.143,302.934,314.939z M300.503,297.451c-1.242-2.392-2.966-4.276-5.171-5.66
		c-2.205-1.386-4.692-2.076-7.456-2.076c-2.725,0-5.196,0.69-7.426,2.076c-2.226,1.384-3.976,3.269-5.241,5.66
		c-1.266,2.391-1.899,5.096-1.899,8.093c0,2.955,0.634,5.629,1.899,8.021c1.266,2.394,3.016,4.281,5.241,5.668
		c2.229,1.381,4.701,2.075,7.426,2.075c2.764,0,5.251-0.685,7.456-2.043c2.203-1.361,3.927-3.246,5.171-5.667
		c1.241-2.417,1.866-5.099,1.866-8.054C302.369,302.546,301.741,299.841,300.503,297.451z"/>
	<path d="M341.943,288.588c0.256,0.28,0.389,0.61,0.389,0.985v20.471c0,4.456-1.256,7.845-3.768,10.167
		c-2.511,2.325-5.924,3.481-10.235,3.481c-4.316,0-7.72-1.156-10.203-3.481c-2.486-2.322-3.728-5.708-3.728-10.167v-20.474
		c0-0.373,0.139-0.705,0.422-0.984c0.279-0.281,0.605-0.423,0.982-0.423c0.424,0,0.762,0.142,1.022,0.423
		c0.255,0.279,0.388,0.611,0.388,0.984v20.474c0,3.517,0.983,6.227,2.951,8.124c1.97,1.906,4.691,2.854,8.163,2.854
		c3.518,0,6.262-0.947,8.232-2.854c1.974-1.897,2.955-4.607,2.955-8.124v-20.474c0-0.373,0.131-0.705,0.39-0.984
		c0.254-0.281,0.594-0.423,1.018-0.423S341.688,288.305,341.943,288.588z"/>
</g>
</svg>
